<?xml version="1.0" encoding="utf-8"?>
<!-- Generator: Adobe Adobe Illustrator 24.2.0, SVG Export Plug-In . SVG Version: 6.00 Build 0)  -->
<svg version="1.1" xmlns="http://www.w3.org/2000/svg" xmlns:xlink="http://www.w3.org/1999/xlink" x="0px" y="0px" width="1920px"
	 height="1080px" viewBox="0 0 1920 1080" style="enable-background:new 0 0 1920 1080;" xml:space="preserve">
<style type="text/css">
	.st0{fill:none;stroke:#9E0042;stroke-width:127;stroke-miterlimit:10;}
	.st1{fill:none;stroke:#FF3A94;stroke-width:100;stroke-miterlimit:10;}
</style>
<g id="Layer_1">
	<path class="st0" d="M910.81-52.23c50.27,163.86,120.91,139.96,211.48,157.25c87.98,16.79,283.49,24.12,374.83,39.51
		c150.61,25.38,218.51,95.46,264.59,156.72c60.78,80.79,84.99,166.37,84.99,238.75c0,0-16.7,91.87-34.36,153.09
		c-5.7,19.76-65.1,110.8-81.53,123.08c-136.5,102.01-151.43,94.1-281.57,98.46c-150.39,5.05-274.46-82.1-350.41-158.34
		c-82.4-82.72-269.47-327.97-326.1-384.25c-51.68-51.36-93.5-81.98-157.96-110.54c-73.59-32.6-202.51-44.15-278.22-26.59
		c-104.92,24.33-99.32,32.21-178.64,102.06c-82.37,72.53-89.82,112.66-89.82,255.25c0,69.42-1.54,112.19,65.6,219.66
		c114.96,184.03,163.96,143.19,332.09,185.23c181.4,45.36,466.37-58.78,521.69,206.96"/>
	<path class="st1" d="M910.81-52.23c50.27,163.86,120.91,139.96,211.48,157.25c87.98,16.79,283.49,24.12,374.83,39.51
		c150.61,25.38,218.51,95.46,264.59,156.72c60.78,80.79,84.99,166.37,84.99,238.75c0,0-16.7,91.87-34.36,153.09
		c-5.7,19.76-65.1,110.8-81.53,123.08c-136.5,102.01-151.43,94.1-281.57,98.46c-150.39,5.05-274.46-82.1-350.41-158.34
		c-82.4-82.72-269.47-327.97-326.1-384.25c-51.68-51.36-93.5-81.98-157.96-110.54c-73.59-32.6-202.51-44.15-278.22-26.59
		c-104.92,24.33-99.32,32.21-178.64,102.06c-82.37,72.53-89.82,112.66-89.82,255.25c0,69.42-1.54,112.19,65.6,219.66
		c114.96,184.03,163.96,143.19,332.09,185.23c181.4,45.36,466.37-58.78,521.69,206.96"/>
</g>
<g id="Layer_2">
</g>
</svg>
